<?xml version="1.0" encoding="UTF-8"?>
<!DOCTYPE svg PUBLIC "-//W3C//DTD SVG 1.1//EN" "http://www.w3.org/Graphics/SVG/1.1/DTD/svg11.dtd">
<svg xmlns="http://www.w3.org/2000/svg" version="1.1" width="511px" height="516px" style="shape-rendering:geometricPrecision; text-rendering:geometricPrecision; image-rendering:optimizeQuality; fill-rule:evenodd; clip-rule:evenodd" xmlns:xlink="http://www.w3.org/1999/xlink">
<g><path style="opacity:0.961" fill="#bdbebd" d="M 336.5,62.5 C 360.595,59.6403 380.095,67.6403 395,86.5C 409.239,110.021 408.906,133.354 394,156.5C 373.127,179.078 348.294,184.578 319.5,173C 295.094,158.265 285.261,136.765 290,108.5C 291.691,101.087 294.358,94.0872 298,87.5C 302.534,83.3006 306.701,78.8006 310.5,74C 318.633,68.7629 327.299,64.9295 336.5,62.5 Z"/></g>
<g><path style="opacity:0.936" fill="#bdbebd" d="M 253.5,68.5 C 263.167,68.5 272.833,68.5 282.5,68.5C 280.836,74.6886 278.003,80.3553 274,85.5C 269.655,95.7207 267.155,106.387 266.5,117.5C 219.203,120.06 181.37,140.06 153,177.5C 137.959,168.874 121.793,164.874 104.5,165.5C 104.402,161.75 105.569,158.417 108,155.5C 142.702,103.881 191.202,74.8811 253.5,68.5 Z"/></g>
<g><path style="opacity:0.939" fill="#bdbebd" d="M 420.5,151.5 C 422.39,151.297 423.89,151.963 425,153.5C 463.245,217.678 465.245,283.011 431,349.5C 426.085,356.328 421.419,363.328 417,370.5C 414.768,374.325 412.768,374.325 411,370.5C 409.255,364.264 406.922,358.264 404,352.5C 398.319,343.963 391.819,336.13 384.5,329C 410.613,283.793 412.279,237.627 389.5,190.5C 400.114,182.381 409.281,172.714 417,161.5C 419.035,158.439 420.201,155.105 420.5,151.5 Z"/></g>
<g><path style="opacity:0.959" fill="#bdbebd" d="M 106.5,186.5 C 140.083,187.858 160.583,204.858 168,237.5C 170.11,266.361 158.277,287.195 132.5,300C 95.6542,310.984 69.4875,299.151 54,264.5C 45.7575,227.809 58.9241,202.642 93.5,189C 97.9884,188.24 102.322,187.406 106.5,186.5 Z"/></g>
<g><path style="opacity:0.936" fill="#bdbebd" d="M 142.5,318.5 C 147.824,324.031 152.324,330.365 156,337.5C 180.25,369.548 212.416,388.048 252.5,393C 254.198,401.821 256.031,410.654 258,419.5C 261.145,426.456 264.811,433.123 269,439.5C 269.49,440.793 269.657,442.127 269.5,443.5C 197.677,442.195 142.843,411.528 105,351.5C 102.194,344.554 98.8606,337.888 95,331.5C 94.187,329.564 93.687,327.564 93.5,325.5C 103.839,325.666 114.172,325.5 124.5,325C 130.855,323.496 136.855,321.329 142.5,318.5 Z"/></g>
<g><path style="opacity:0.961" fill="#bdbebd" d="M 325.5,334.5 C 354.598,331.791 375.431,343.457 388,369.5C 397.583,396.671 391.749,419.837 370.5,439C 336.337,459.502 307.171,454.002 283,422.5C 270.346,394.73 274.512,369.897 295.5,348C 299.5,345.333 303.5,342.667 307.5,340C 313.593,338.093 319.593,336.259 325.5,334.5 Z"/></g>
</svg>
