<?xml version="1.0" encoding="UTF-8"?>
<!-- Generator: visioncortex VTracer 0.6.3 -->
<svg version="1.1" xmlns="http://www.w3.org/2000/svg" width="1280" height="1280">
<path d="M0 0 C1.57 -0 3.14 -0 4.71 -0.01 C9.02 -0.01 13.34 -0.01 17.66 -0.01 C22.35 -0 27.05 -0.01 31.74 -0.01 C39.97 -0.02 48.2 -0.02 56.44 -0.02 C68.67 -0.02 80.91 -0.02 93.15 -0.03 C116.28 -0.04 139.4 -0.04 162.53 -0.04 C180.38 -0.04 198.23 -0.04 216.09 -0.04 C221.22 -0.05 226.36 -0.05 231.49 -0.05 C232.77 -0.05 234.05 -0.05 235.36 -0.05 C271.27 -0.05 307.18 -0.06 343.09 -0.06 C344.46 -0.06 345.83 -0.06 347.19 -0.06 C353.37 -0.06 359.55 -0.06 365.72 -0.06 C368.48 -0.06 371.23 -0.06 373.98 -0.06 C375.36 -0.06 376.74 -0.06 378.12 -0.06 C421.73 -0.06 465.34 -0.06 508.94 -0.08 C519.94 -0.08 530.93 -0.08 541.92 -0.09 C542.6 -0.09 543.27 -0.09 543.97 -0.09 C580.49 -0.1 617 -0.1 653.52 -0.1 C658.65 -0.1 663.79 -0.1 668.92 -0.1 C670.82 -0.1 670.82 -0.1 672.75 -0.1 C693.13 -0.1 713.51 -0.11 733.9 -0.11 C754.36 -0.12 774.82 -0.12 795.28 -0.12 C807.45 -0.11 819.62 -0.12 831.79 -0.13 C839.91 -0.13 848.03 -0.13 856.15 -0.12 C860.78 -0.12 865.41 -0.12 870.04 -0.13 C874.25 -0.13 878.46 -0.13 882.67 -0.12 C884.19 -0.12 885.71 -0.12 887.23 -0.13 C889.28 -0.13 891.33 -0.13 893.38 -0.12 C895.09 -0.12 895.09 -0.12 896.83 -0.12 C899.71 0.13 901.27 0.71 903.74 2.13 C906.09 2.58 906.09 2.58 908.49 2.75 C909.29 2.83 910.09 2.9 910.91 2.98 C911.51 3.03 912.12 3.08 912.74 3.13 C912.74 3.79 912.74 4.45 912.74 5.13 C913.47 5.1 914.2 5.06 914.96 5.03 C925.98 5.42 942.48 15.07 950.74 22.13 C950.74 22.79 950.74 23.45 950.74 24.13 C951.36 24.27 951.97 24.42 952.61 24.57 C954.74 25.13 954.74 25.13 956.74 26.13 C956.74 26.79 956.74 27.45 956.74 28.13 C957.27 28.36 957.81 28.58 958.36 28.82 C964.53 32.22 969.55 37.52 973.74 43.13 C973.74 43.79 973.74 44.45 973.74 45.13 C974.4 45.13 975.06 45.13 975.74 45.13 C977.74 48.13 977.74 48.13 977.74 51.13 C978.73 51.46 979.72 51.79 980.74 52.13 C982.74 55.13 982.74 55.13 982.74 59.13 C983.73 59.46 984.72 59.79 985.74 60.13 C986.9 61.87 986.9 61.87 987.92 64 C988.44 65.05 988.44 65.05 988.97 66.12 C989.74 68.13 989.74 68.13 989.74 71.13 C990.4 71.13 991.06 71.13 991.74 71.13 C993.64 76.23 995.16 80.59 994.74 86.13 C995.4 86.13 996.06 86.13 996.74 86.13 C1000.71 97.44 1000.15 108.91 1000.11 120.75 C1000.11 123.06 1000.12 125.37 1000.12 127.68 C1000.13 134.01 1000.13 140.35 1000.11 146.68 C1000.1 152.81 1000.11 158.95 1000.12 165.08 C1000.13 178.39 1000.13 191.71 1000.11 205.02 C1000.1 216.67 1000.1 228.32 1000.1 239.96 C1000.1 241.12 1000.1 241.12 1000.1 242.31 C1000.1 245.45 1000.1 248.58 1000.1 251.72 C1000.1 281.15 1000.09 310.57 1000.07 340 C1000.05 366.14 1000.05 392.29 1000.05 418.43 C1000.05 420.11 1000.05 421.79 1000.05 423.47 C1000.05 424.71 1000.05 424.71 1000.05 425.98 C1000.05 430.16 1000.06 434.34 1000.06 438.52 C1000.06 439.76 1000.06 439.76 1000.06 441.02 C1000.06 462.87 1000.06 484.72 1000.05 506.57 C1000.05 508.92 1000.05 511.27 1000.04 513.62 C1000.04 515.18 1000.04 516.74 1000.04 518.3 C1000.04 529.17 1000.04 540.04 1000.04 550.92 C1000.04 564.92 1000.04 578.93 1000.02 592.94 C1000.02 599.69 1000.01 606.45 1000.02 613.2 C1000.02 619.38 1000.01 625.56 1000 631.74 C1000 633.98 1000 636.22 1000 638.46 C1000.01 641.5 1000 644.53 999.99 647.57 C1000 648.45 1000 649.32 1000 650.22 C999.97 655.26 999.29 659.34 997.74 664.13 C997.47 666.27 997.26 668.42 997.11 670.57 C997 672.14 997 672.14 996.89 673.75 C996.84 674.53 996.79 675.32 996.74 676.13 C996.08 676.13 995.42 676.13 994.74 676.13 C994.76 676.76 994.78 677.38 994.81 678.03 C994.83 679.25 994.83 679.25 994.86 680.5 C994.89 681.32 994.91 682.13 994.93 682.96 C994.74 685.13 994.74 685.13 992.74 687.13 C992.74 688.26 992.74 689.4 992.74 690.57 C992.74 694.13 992.74 694.13 990.74 697.13 C990.35 698.78 990.02 700.45 989.74 702.13 C989.4 703.46 989.07 704.8 988.74 706.13 C988.61 706.91 988.49 707.7 988.36 708.5 C987.61 711.67 986.21 714.24 984.74 717.13 C984.38 718.45 984.04 719.79 983.74 721.13 C982.52 724.61 981.07 727.27 978.74 730.13 C979.07 730.79 979.4 731.45 979.74 732.13 C978.67 734.76 977.54 737.27 976.3 739.82 C975.94 740.57 975.58 741.32 975.2 742.1 C972.69 747.28 970.1 752.41 967.42 757.5 C967.1 758.13 966.77 758.75 966.44 759.39 C963.34 765.19 963.34 765.19 960.74 767.13 C959.75 767.13 958.76 767.13 957.74 767.13 C958.73 767.62 958.73 767.62 959.74 768.13 C958.59 772 957.5 775.13 954.74 778.13 C954.08 778.13 953.42 778.13 952.74 778.13 C952.68 779.15 952.68 779.15 952.61 780.19 C951.54 783.79 949.78 785.63 947.28 788.37 C945.55 790.25 945.55 790.25 943.8 793.19 C941.28 796.79 938.35 799.62 934.74 802.13 C934.08 802.13 933.42 802.13 932.74 802.13 C932.98 802.7 933.22 803.27 933.47 803.86 C933.74 806.13 933.74 806.13 932.28 808.22 C931.52 808.97 930.77 809.72 930 810.5 C929.14 811.37 928.28 812.24 927.39 813.14 C926.42 814.1 925.44 815.07 924.47 816.03 C923.45 817.06 922.43 818.08 921.41 819.11 C918.6 821.94 915.77 824.76 912.94 827.57 C909.9 830.61 906.87 833.66 903.84 836.7 C897.89 842.67 891.93 848.62 885.97 854.57 C881.12 859.41 876.28 864.25 871.45 869.09 C870.42 870.12 870.42 870.12 869.36 871.17 C867.97 872.57 866.57 873.97 865.18 875.37 C852.07 888.48 838.95 901.59 825.83 914.68 C814.56 925.93 803.3 937.19 792.05 948.47 C779 961.54 765.94 974.61 752.87 987.67 C751.48 989.06 750.09 990.45 748.7 991.84 C748.01 992.52 747.33 993.21 746.62 993.91 C741.78 998.75 736.95 1003.59 732.12 1008.43 C726.24 1014.33 720.34 1020.21 714.44 1026.09 C711.43 1029.09 708.42 1032.1 705.42 1035.11 C702.67 1037.87 699.92 1040.62 697.16 1043.35 C696.16 1044.35 695.16 1045.35 694.17 1046.35 C692.82 1047.71 691.47 1049.05 690.1 1050.39 C689.35 1051.14 688.6 1051.89 687.83 1052.67 C685.74 1054.13 685.74 1054.13 683.46 1053.86 C682.61 1053.5 682.61 1053.5 681.74 1053.13 C681.58 1054.01 681.58 1054.01 681.43 1054.91 C679.52 1061.04 672.84 1064.92 667.58 1068.02 C665.11 1069.51 662.96 1071.3 660.74 1073.13 C651.79 1080.13 651.79 1080.13 646.74 1080.13 C645.68 1081.25 645.68 1081.25 644.6 1082.39 C641.59 1085.27 638.54 1087.14 634.86 1089 C634.21 1089.34 633.57 1089.68 632.9 1090.02 C622.93 1095.15 612.95 1100.14 602.11 1103.13 C599.38 1103.94 597.24 1104.84 594.74 1106.13 C590.42 1107.76 586.31 1108.58 581.74 1109.13 C581.74 1109.46 581.74 1109.79 581.74 1110.13 C572.74 1113.13 572.74 1113.13 569.67 1113.07 C566.61 1112.79 566.61 1112.79 564.74 1115.13 C562.57 1115.32 562.57 1115.32 560.11 1115.25 C559.29 1115.24 558.48 1115.22 557.64 1115.2 C556.7 1115.16 556.7 1115.16 555.74 1115.13 C555.74 1115.79 555.74 1116.45 555.74 1117.13 C554.62 1117.18 553.5 1117.23 552.34 1117.28 C550.87 1117.35 549.4 1117.43 547.92 1117.5 C547.19 1117.53 546.45 1117.57 545.69 1117.6 C541.92 1117.8 539.94 1117.99 536.74 1120.13 C533.68 1120.32 530.71 1120.4 527.65 1120.38 C526.7 1120.38 525.75 1120.39 524.78 1120.39 C521.58 1120.4 518.38 1120.39 515.17 1120.38 C512.87 1120.38 510.56 1120.39 508.26 1120.39 C501.89 1120.4 495.53 1120.4 489.17 1120.39 C483.03 1120.39 476.88 1120.39 470.73 1120.4 C457.37 1120.41 444.02 1120.41 430.66 1120.4 C418.97 1120.4 407.29 1120.39 395.6 1120.4 C394.83 1120.4 394.05 1120.4 393.25 1120.4 C390.11 1120.4 386.97 1120.4 383.82 1120.4 C354.32 1120.4 324.82 1120.4 295.32 1120.39 C269.09 1120.38 242.86 1120.38 216.63 1120.39 C187.18 1120.4 157.73 1120.4 128.29 1120.4 C125.15 1120.4 122.01 1120.4 118.87 1120.4 C117.72 1120.4 117.72 1120.4 116.53 1120.4 C104.85 1120.39 93.17 1120.4 81.49 1120.4 C68.21 1120.41 54.93 1120.41 41.65 1120.39 C34.87 1120.39 28.09 1120.39 21.31 1120.39 C15.11 1120.4 8.91 1120.4 2.71 1120.39 C0.46 1120.38 -1.79 1120.38 -4.04 1120.39 C-7.09 1120.4 -10.13 1120.39 -13.17 1120.38 C-14.06 1120.38 -14.95 1120.39 -15.86 1120.39 C-21.92 1120.36 -21.92 1120.36 -25.26 1118.13 C-26.25 1118.13 -27.24 1118.13 -28.26 1118.13 C-31.26 1118.13 -31.26 1118.13 -34.26 1116.13 C-36.25 1115.55 -38.25 1115.04 -40.26 1114.57 C-43.32 1113.84 -46.28 1113.12 -49.26 1112.13 C-49.26 1111.47 -49.26 1110.81 -49.26 1110.13 C-49.84 1110.01 -50.41 1109.88 -51 1109.76 C-53.36 1109.1 -55.34 1108.19 -57.51 1107.07 C-58.22 1106.7 -58.93 1106.34 -59.65 1105.97 C-60.18 1105.69 -60.72 1105.41 -61.26 1105.13 C-61.26 1104.47 -61.26 1103.81 -61.26 1103.13 C-62.03 1103 -62.79 1102.88 -63.58 1102.75 C-66.26 1102.13 -66.26 1102.13 -69.26 1100.13 C-69.26 1099.47 -69.26 1098.81 -69.26 1098.13 C-69.88 1097.98 -70.5 1097.84 -71.14 1097.69 C-73.26 1097.13 -73.26 1097.13 -75.26 1096.13 C-75.26 1095.47 -75.26 1094.81 -75.26 1094.13 C-76.14 1093.73 -76.14 1093.73 -77.03 1093.32 C-79.29 1092.11 -81.07 1090.79 -83.01 1089.13 C-83.63 1088.61 -84.24 1088.1 -84.87 1087.57 C-86.26 1086.13 -86.26 1086.13 -86.26 1084.13 C-87.25 1083.8 -88.24 1083.47 -89.26 1083.13 C-92.27 1080.41 -94.85 1077.98 -96.26 1074.13 C-96.26 1073.14 -96.26 1072.15 -96.26 1071.13 C-97.25 1070.8 -98.24 1070.47 -99.26 1070.13 C-103.04 1065.38 -105.69 1059.6 -108.26 1054.13 C-108.6 1053.41 -108.94 1052.68 -109.29 1051.94 C-115.26 1038.92 -115.26 1038.92 -115.26 1033.13 C-115.92 1032.8 -116.58 1032.47 -117.26 1032.13 C-117.86 1029.84 -117.86 1029.84 -118.33 1026.94 C-118.48 1026 -118.64 1025.06 -118.8 1024.09 C-118.95 1023.11 -119.11 1022.13 -119.26 1021.13 C-119.44 1020.21 -119.61 1019.3 -119.78 1018.35 C-120.28 1015.04 -120.39 1011.92 -120.39 1008.57 C-120.39 1007.26 -120.39 1005.95 -120.4 1004.6 C-120.39 1003.14 -120.39 1001.69 -120.39 1000.24 C-120.39 998.69 -120.39 997.13 -120.39 995.58 C-120.4 991.3 -120.39 987.01 -120.39 982.73 C-120.39 978.08 -120.39 973.43 -120.39 968.77 C-120.4 960.61 -120.4 952.45 -120.4 944.29 C-120.39 932.16 -120.39 920.02 -120.4 907.89 C-120.4 886.21 -120.4 864.54 -120.4 842.87 C-120.4 823.9 -120.4 804.94 -120.4 785.97 C-120.4 784.71 -120.4 783.45 -120.4 782.16 C-120.4 777.06 -120.4 771.95 -120.4 766.85 C-120.4 731.23 -120.4 695.61 -120.4 659.99 C-120.4 659.32 -120.4 658.65 -120.4 657.95 C-120.4 647.05 -120.39 636.14 -120.39 625.23 C-120.39 581.99 -120.39 538.74 -120.39 495.49 C-120.39 484.6 -120.4 473.7 -120.4 462.8 C-120.4 462.13 -120.4 461.46 -120.4 460.77 C-120.4 424.55 -120.4 388.33 -120.4 352.11 C-120.4 347.01 -120.4 341.92 -120.4 336.83 C-120.4 335.57 -120.4 334.32 -120.4 333.02 C-120.4 314.07 -120.4 295.11 -120.4 276.16 C-120.4 254.61 -120.4 233.06 -120.4 211.5 C-120.39 199.44 -120.39 187.37 -120.4 175.3 C-120.4 167.25 -120.4 159.19 -120.39 151.14 C-120.39 146.54 -120.39 141.95 -120.39 137.36 C-120.4 133.18 -120.4 129 -120.39 124.82 C-120.39 123.32 -120.39 121.82 -120.39 120.32 C-120.42 103.59 -120.42 103.59 -119.26 97.13 C-118.77 96.63 -118.77 96.63 -118.26 96.13 C-117.9 93.8 -117.56 91.47 -117.26 89.13 C-116.6 89.13 -115.94 89.13 -115.26 89.13 C-115.59 88.14 -115.92 87.15 -116.26 86.13 C-115.54 84.42 -114.81 82.72 -114.02 81.04 C-112.88 78.17 -112.68 75.18 -112.26 72.13 C-111.27 71.14 -111.27 71.14 -110.26 70.13 C-109.23 67.81 -108.23 65.47 -107.26 63.13 C-106.26 60.75 -106.26 60.75 -105.26 59.13 C-103.78 58.63 -103.78 58.63 -102.26 58.13 C-102.16 57.37 -102.06 56.6 -101.95 55.82 C-101.2 52.88 -100.48 52.08 -98.26 50.13 C-97.6 49.14 -96.94 48.15 -96.26 47.13 C-90.25 38.89 -83.25 30.15 -74.26 25.13 C-73.93 24.47 -73.6 23.81 -73.26 23.13 C-71.61 22.11 -69.94 21.11 -68.26 20.13 C-67.6 19.47 -66.94 18.81 -66.26 18.13 C-64.94 18.13 -63.62 18.13 -62.26 18.13 C-62.26 17.47 -62.26 16.81 -62.26 16.13 C-60.61 15.47 -58.96 14.81 -57.26 14.13 C-57.26 13.8 -57.26 13.47 -57.26 13.13 C-55.61 13.13 -53.96 13.13 -52.26 13.13 C-52.26 12.47 -52.26 11.81 -52.26 11.13 C-50.61 10.47 -48.96 9.81 -47.26 9.13 C-47.26 8.8 -47.26 8.47 -47.26 8.13 C-46.27 8.03 -45.28 7.92 -44.26 7.82 C-39.98 7.22 -36.26 5.74 -32.26 4.13 C-32.26 3.8 -32.26 3.47 -32.26 3.13 C-27.81 2.63 -27.81 2.63 -23.26 2.13 C-23.26 1.8 -23.26 1.47 -23.26 1.13 C-15.53 -0.12 -7.81 -0.01 0 0 Z M984.74 62.13 C985.74 64.13 985.74 64.13 985.74 64.13 Z M962.74 759.13 C963.07 759.79 963.4 760.45 963.74 761.13 C964.07 760.47 964.4 759.81 964.74 759.13 C964.08 759.13 963.42 759.13 962.74 759.13 Z M942.74 789.13 C943.07 789.79 943.4 790.45 943.74 791.13 C944.07 790.47 944.4 789.81 944.74 789.13 C944.08 789.13 943.42 789.13 942.74 789.13 Z M638.74 1083.13 C639.07 1083.79 639.4 1084.45 639.74 1085.13 C640.07 1084.47 640.4 1083.81 640.74 1083.13 C640.08 1083.13 639.42 1083.13 638.74 1083.13 Z M628.74 1088.13 C629.07 1088.79 629.4 1089.45 629.74 1090.13 C630.07 1089.47 630.4 1088.81 630.74 1088.13 C630.08 1088.13 629.42 1088.13 628.74 1088.13 Z " fill="#FACB2E" transform="translate(199.26310348510742,78.87136554718018)"/>
<path d="M0 0 C3.96 0.01 7.93 0.01 11.89 0.01 C18.74 0 25.6 0.01 32.45 0.03 C42.35 0.06 52.26 0.06 62.16 0.07 C78.24 0.07 94.31 0.09 110.39 0.12 C125.99 0.15 141.6 0.17 157.2 0.18 C158.17 0.18 159.13 0.18 160.12 0.19 C164.96 0.19 169.79 0.19 174.63 0.2 C214.67 0.23 254.71 0.28 294.75 0.35 C295.08 1.01 295.41 1.67 295.75 2.35 C295.09 3.34 294.43 4.33 293.75 5.35 C293.32 8.01 292.96 10.61 292.69 13.29 C291.77 21.76 291.77 21.76 290.75 25.35 C290.63 26.13 290.5 26.92 290.38 27.72 C289.62 30.89 288.23 33.46 286.75 36.35 C286.39 37.67 286.05 39.01 285.75 40.35 C284.53 43.83 283.08 46.49 280.75 49.35 C281.08 50.01 281.41 50.67 281.75 51.35 C280.69 53.98 279.56 56.49 278.31 59.04 C277.77 60.17 277.77 60.17 277.22 61.32 C274.71 66.5 272.12 71.63 269.44 76.72 C269.11 77.35 268.79 77.97 268.45 78.61 C265.35 84.41 265.35 84.41 262.75 86.35 C261.76 86.35 260.77 86.35 259.75 86.35 C260.41 86.68 261.07 87.01 261.75 87.35 C260.61 91.22 259.52 94.35 256.75 97.35 C256.09 97.35 255.43 97.35 254.75 97.35 C254.71 98.03 254.67 98.71 254.63 99.41 C253.55 103.01 251.79 104.85 249.29 107.59 C247.56 109.47 247.56 109.47 245.81 112.41 C243.29 116.01 240.36 118.84 236.75 121.35 C236.09 121.35 235.43 121.35 234.75 121.35 C234.99 121.92 235.24 122.49 235.48 123.08 C235.75 125.35 235.75 125.35 234.29 127.44 C233.54 128.19 232.79 128.94 232.01 129.72 C231.15 130.59 230.29 131.46 229.41 132.36 C228.43 133.32 227.46 134.29 226.48 135.25 C225.46 136.28 224.44 137.3 223.43 138.33 C220.61 141.16 217.79 143.98 214.96 146.79 C211.91 149.83 208.88 152.87 205.85 155.92 C199.91 161.89 193.95 167.84 187.98 173.79 C183.14 178.63 178.3 183.47 173.46 188.31 C172.77 189 172.09 189.68 171.38 190.39 C169.98 191.79 168.59 193.19 167.19 194.59 C154.09 207.7 140.97 220.81 127.84 233.9 C116.57 245.15 105.31 256.41 94.06 267.69 C81.02 280.76 67.96 293.83 54.89 306.88 C53.5 308.28 52.1 309.67 50.71 311.06 C50.03 311.74 49.34 312.43 48.63 313.13 C43.8 317.97 38.96 322.81 34.13 327.65 C28.25 333.54 22.36 339.43 16.45 345.31 C13.44 348.31 10.43 351.32 7.43 354.33 C4.69 357.09 1.93 359.83 -0.83 362.57 C-1.83 363.57 -2.83 364.57 -3.82 365.57 C-5.16 366.93 -6.52 368.27 -7.88 369.61 C-8.63 370.36 -9.39 371.11 -10.16 371.89 C-12.25 373.35 -12.25 373.35 -14.52 373.08 C-15.09 372.84 -15.66 372.6 -16.25 372.35 C-16.4 373.23 -16.4 373.23 -16.56 374.13 C-18.47 380.26 -25.15 384.14 -30.41 387.23 C-32.87 388.73 -35.02 390.52 -37.25 392.35 C-46.2 399.35 -46.2 399.35 -51.25 399.35 C-51.95 400.09 -52.66 400.84 -53.38 401.61 C-56.39 404.49 -59.45 406.36 -63.12 408.22 C-64.1 408.73 -64.1 408.73 -65.09 409.24 C-75.05 414.37 -85.04 419.36 -95.87 422.35 C-98.61 423.16 -100.74 424.06 -103.25 425.35 C-107.56 426.98 -111.67 427.8 -116.25 428.35 C-116.25 428.68 -116.25 429.01 -116.25 429.35 C-121.55 431.11 -125.66 432.35 -131.25 432.35 C-132.59 432.65 -133.93 432.97 -135.25 433.35 C-135.91 433.35 -136.57 433.35 -137.25 433.35 C-137.32 392.36 -137.37 351.38 -137.4 310.39 C-137.41 305.54 -137.41 300.7 -137.41 295.85 C-137.41 294.89 -137.42 293.93 -137.42 292.93 C-137.43 277.34 -137.45 261.75 -137.48 246.15 C-137.51 230.14 -137.53 214.13 -137.53 198.11 C-137.54 188.24 -137.55 178.37 -137.57 168.5 C-137.59 161.72 -137.59 154.94 -137.59 148.16 C-137.59 144.25 -137.59 140.35 -137.61 136.44 C-137.77 95.52 -128.66 62.45 -99.56 32.59 C-84.33 18.13 -65.6 8.33 -45.25 3.35 C-43.85 2.97 -43.85 2.97 -42.42 2.59 C-28.45 -0.6 -14.24 -0.06 0 0 Z M264.75 78.35 C265.08 79.01 265.41 79.67 265.75 80.35 C266.08 79.69 266.41 79.03 266.75 78.35 C266.09 78.35 265.43 78.35 264.75 78.35 Z M244.75 108.35 C245.08 109.01 245.41 109.67 245.75 110.35 C246.08 109.69 246.41 109.03 246.75 108.35 C246.09 108.35 245.43 108.35 244.75 108.35 Z M-59.25 402.35 C-58.92 403.01 -58.59 403.67 -58.25 404.35 C-57.92 403.69 -57.59 403.03 -57.25 402.35 C-57.91 402.35 -58.57 402.35 -59.25 402.35 Z M-69.25 407.35 C-68.92 408.01 -68.59 408.67 -68.25 409.35 C-67.92 408.69 -67.59 408.03 -67.25 407.35 C-67.91 407.35 -68.57 407.35 -69.25 407.35 Z " fill="#F49447" transform="translate(897.2489786148071,759.6518031358719)"/>
<path d="M0 0 C176.88 0 353.76 0 536 0 C536 0.33 536 0.66 536 1 C359.12 1 182.24 1 0 1 C0 0.67 0 0.34 0 0 Z " fill="#000000" transform="translate(186,1200)"/>
<path d="M0 0 C0.33 0 0.66 0 1 0 C1 176.88 1 353.76 1 536 C0.67 536 0.34 536 0 536 C0 359.12 0 182.24 0 0 Z " fill="#000000" transform="translate(1200,186)"/>
<path d="M0 0 C-1 3 -1 3 -4.17 4.75 C-5.5 5.37 -6.84 5.97 -8.19 6.56 C-9.18 7.02 -9.18 7.02 -10.19 7.48 C-15.42 9.85 -20.17 12 -26 12 C-23.06 9.43 -20.08 8.24 -16.43 6.96 C-12.32 5.34 -8.45 3.24 -4.54 1.21 C-2 0 -2 0 0 0 Z " fill="#FAC432" transform="translate(827,1169)"/>
<path d="M0 0 C2.97 0 5.94 0 9 0 C9 0.33 9 0.66 9 1 C6.03 1 3.06 1 0 1 C0 0.67 0 0.34 0 0 Z " fill="#000000" transform="translate(739,1197)"/>
<path d="M0 0 C1.98 0 3.96 0 6 0 C6 0.33 6 0.66 6 1 C4.02 1 2.04 1 0 1 C0 0.67 0 0.34 0 0 Z " fill="#000000" transform="translate(766,1192)"/>
<path d="M0 0 C0.33 0 0.66 0 1 0 C1 1.65 1 3.3 1 5 C0.67 5 0.34 5 0 5 C0 3.35 0 1.7 0 0 Z " fill="#000000" transform="translate(1192,766)"/>
<path d="M0 0 C0.33 0 0.66 0 1 0 C1 1.65 1 3.3 1 5 C0.67 5 0.34 5 0 5 C0 3.35 0 1.7 0 0 Z " fill="#000000" transform="translate(1197,743)"/>
<path d="M0 0 C4 1 4 1 4 1 Z " fill="#000000" transform="translate(170,1197)"/>
<path d="M0 0 C4 1 4 1 4 1 Z " fill="#000000" transform="translate(776,1190)"/>
<path d="M0 0 C1 4 1 4 1 4 Z " fill="#000000" transform="translate(1190,776)"/>
<path d="M0 0 C2 1 2 1 2 1 Z " fill="#000000" transform="translate(756,1195)"/>
<path d="M0 0 C2 1 2 1 2 1 Z " fill="#000000" transform="translate(806,1180)"/>
<path d="" fill="#000000" transform="translate(0,0)"/>
<path d="" fill="#000000" transform="translate(0,0)"/>
<path d="" fill="#000000" transform="translate(0,0)"/>
<path d="" fill="#000000" transform="translate(0,0)"/>
<path d="" fill="#FBCC2F" transform="translate(0,0)"/>
<path d="" fill="#000000" transform="translate(0,0)"/>
<path d="" fill="#000000" transform="translate(0,0)"/>
<path d="" fill="#FBCC2F" transform="translate(0,0)"/>
<path d="" fill="#000000" transform="translate(0,0)"/>
<path d="" fill="#000000" transform="translate(0,0)"/>
<path d="" fill="#000000" transform="translate(0,0)"/>
<path d="" fill="#FBCC2F" transform="translate(0,0)"/>
<path d="" fill="#FBCC2F" transform="translate(0,0)"/>
<path d="" fill="#FBCC2F" transform="translate(0,0)"/>
<path d="" fill="#000000" transform="translate(0,0)"/>
<path d="" fill="#000000" transform="translate(0,0)"/>
<path d="" fill="#000000" transform="translate(0,0)"/>
<path d="" fill="#FBCC2F" transform="translate(0,0)"/>
<path d="" fill="#000000" transform="translate(0,0)"/>
<path d="" fill="#FBCC2F" transform="translate(0,0)"/>
<path d="" fill="#000000" transform="translate(0,0)"/>
<path d="" fill="#FBCC2F" transform="translate(0,0)"/>
<path d="" fill="#FBCC2F" transform="translate(0,0)"/>
<path d="" fill="#FBCC2F" transform="translate(0,0)"/>
<path d="" fill="#FBCC2F" transform="translate(0,0)"/>
</svg>
